<svg xmlns="http://www.w3.org/2000/svg" viewBox="0 0 355.17 64.5"><defs><style>.cls-1{fill:#fff;}.cls-2{fill:#f68d2c;}</style></defs><g id="Layer_2" data-name="Layer 2"><g id="Layer_1-2" data-name="Layer 1"><path class="cls-1" d="M220.25,27.06h-8l-9.83-27h8.32l5.77,17.6L223.25.09,231.51,0Z"/><path class="cls-1" d="M247.67,27.31c-5.42-.21-6.82-4.87-5.46-10s5.46-10.17,11.1-9.95,6.93,5.1,5.36,10.36C257.16,22.76,253.12,27.53,247.67,27.31Zm4.14-14.85c-1.81-.08-2.69,1.72-3.56,4.86s-.88,5.06.89,5.14,2.57-1.64,3.46-4.73S253.62,12.53,251.81,12.46Z"/><path class="cls-1" d="M265.89,27.4c-5.42-.21-6.82-4.87-5.46-10s5.46-10.17,11.1-9.95,6.93,5.1,5.36,10.36C275.37,22.85,271.34,27.62,265.89,27.4ZM270,12.55c-1.81-.07-2.69,1.72-3.56,4.87s-.88,5,.89,5.13,2.57-1.64,3.46-4.73S271.84,12.62,270,12.55Z"/><path class="cls-1" d="M300,7.92c3.64,0,4.78,2.42,4.71,5.8L304,27l-5.91,0,.32-11.87c.05-1.46-.27-2-1.33-2a2.21,2.21,0,0,0-2.2,1.94c-.08.94-.58,11.91-.58,11.91l-6.26-.06.67-11.79c.1-1.44-.33-2-1.24-2a2.13,2.13,0,0,0-2.26,2c-.08,1.06-.91,11.67-.91,11.67l-6-.09,1.08-18,6-.37.14,2a6.5,6.5,0,0,1,5-2.36c2.26,0,3.51.95,4.07,2.55A6.69,6.69,0,0,1,300,7.92Z"/><path class="cls-1" d="M119,27.06h-8l-9.83-27h8.32l5.77,17.6L122.05.09,130.3,0Z"/><path class="cls-1" d="M146.46,27.31c-5.42-.21-6.82-4.87-5.46-10s5.46-10.17,11.1-9.95,6.93,5.1,5.36,10.36C156,22.76,151.91,27.53,146.46,27.31Zm4.14-14.85c-1.81-.08-2.69,1.72-3.56,4.86s-.88,5.06.89,5.14,2.57-1.64,3.46-4.73S152.41,12.53,150.6,12.46Z"/><path class="cls-1" d="M164.68,27.4c-5.42-.21-6.82-4.87-5.46-10s5.46-10.17,11.1-9.95,6.93,5.1,5.36,10.36C174.16,22.85,170.13,27.62,164.68,27.4Zm4.14-14.85c-1.81-.07-2.69,1.72-3.56,4.87s-.88,5,.89,5.13,2.57-1.64,3.46-4.73S170.63,12.62,168.82,12.55Z"/><path class="cls-1" d="M198.81,7.92c3.64,0,4.78,2.42,4.71,5.8L202.83,27l-5.91,0,.32-11.87c.06-1.46-.27-2-1.33-2a2.21,2.21,0,0,0-2.2,1.94c-.07.94-.58,11.91-.58,11.91l-6.26-.06.67-11.79c.1-1.44-.33-2-1.24-2a2.13,2.13,0,0,0-2.26,2c-.08,1.06-.91,11.67-.91,11.67l-6-.09,1.08-18,6-.37.15,2a6.46,6.46,0,0,1,5-2.36c2.26,0,3.51.95,4.07,2.55A6.69,6.69,0,0,1,198.81,7.92Z"/><path class="cls-1" d="M17.84,27.06h-8L0,.09H8.32l5.77,17.6L20.84.09,29.09,0Z"/><path class="cls-1" d="M45.26,27.31c-5.42-.21-6.82-4.87-5.46-10S45.26,7.15,50.89,7.37s6.93,5.1,5.36,10.36C54.74,22.76,50.7,27.53,45.26,27.31Zm4.13-14.85c-1.81-.08-2.69,1.72-3.56,4.86s-.87,5.06.89,5.14,2.58-1.64,3.47-4.73S51.2,12.53,49.39,12.46Z"/><path class="cls-1" d="M63.47,27.4c-5.42-.21-6.82-4.87-5.46-10s5.46-10.17,11.1-9.95,6.93,5.1,5.36,10.36C73,22.85,68.92,27.62,63.47,27.4Zm4.14-14.85c-1.81-.07-2.69,1.72-3.56,4.87s-.88,5,.89,5.13,2.57-1.64,3.46-4.73S69.42,12.62,67.61,12.55Z"/><path class="cls-1" d="M97.6,7.92c3.64,0,4.78,2.42,4.71,5.8L101.63,27l-5.91,0L96,15.12c.06-1.46-.26-2-1.33-2a2.21,2.21,0,0,0-2.2,1.94C92.43,16,91.93,27,91.93,27l-6.26-.06.66-11.79c.11-1.44-.33-2-1.24-2a2.14,2.14,0,0,0-2.26,2c-.07,1.06-.91,11.67-.91,11.67l-6-.09L77,8.76l6-.37.15,2A6.46,6.46,0,0,1,88.1,8c2.27,0,3.51.95,4.07,2.55A6.69,6.69,0,0,1,97.6,7.92Z"/><path class="cls-2" d="M320.57,13.19a1.79,1.79,0,0,1-.72,3.47,3.27,3.27,0,0,0-2.24.7,4.9,4.9,0,0,0-1.07,1.76l-.08.3a1.76,1.76,0,0,0,1.23,2.22l.7.19c1.12.3,3.24.21,6.34-.29a8,8,0,0,1,2.51-.12l.1,0c.41.74.62,1.16.3,1.84-.64,1.33-1.5,1.25-2.72,1.47s-2.74.69-4.08.84a12.33,12.33,0,0,1-4.53-.23,4.94,4.94,0,0,1-3.82-4.64c0-4,2.58-6.32,5.3-7.41A3.79,3.79,0,0,1,320.57,13.19Z"/><path class="cls-2" d="M333.05,13.29h.05q2.67.15,3.53,3.47a9.46,9.46,0,0,1,.15,2.41,7.73,7.73,0,0,1-3.15,5.8,5.56,5.56,0,0,1-2.81.77h-.18q-2.76-.16-3.71-3.76a6.92,6.92,0,0,1-.16-1.9v-.28C327,15.61,328.58,13,333.05,13.29Zm-3,4.06a4.32,4.32,0,0,0-.1.56,11.67,11.67,0,0,0,.28,3.3c.61,2.37,1.7,1,2.55-.34a4.53,4.53,0,0,0,.66-2s0-.17,0-.18C333.62,16.2,330.76,15,330.08,17.35Z"/><path class="cls-2" d="M349.56,13.56c.88-.19,1.89-.13,2.06.67a26.36,26.36,0,0,1,1.81,5.13c.37,1.35,3,6.42,1,6.7-1.14.16-3-2-3.27-3a19.3,19.3,0,0,0-1.27-4.12h-.05c-1.8,4.51-3.07,6.74-3.79,6.71l-.47,0q-1.95-.09-2.11-4.15c-.11-2.17-.23-3.25-.38-3.25a11,11,0,0,0-1.67,3.68c-.37,1.12-1.1,3.43-2.65,3.44-1.88,0-1.33-2.47-1.18-3.65.17-1.43-.28-4.35.72-5.45.81-.9,1.08-.19,2.08-.49,1.34-.4,1.41-2.26,3.08-2.18s2.53,2.1,2.85,3.43l.19.53h.1c.6-1.11.76-2.63,1.77-3.48A3.13,3.13,0,0,1,349.56,13.56Z"/><path class="cls-2" d="M311.67,24.66a1.9,1.9,0,1,1-1.68-2.1A1.91,1.91,0,0,1,311.67,24.66Z"/><path class="cls-1" d="M38.05,14.38c-1.55-1.09-3.29-1.33-4.85,1.51L31.69,26.77H24.45L28.2,7.92l6.29,0-.67,2.68c2.08-3.92,7.13-2.49,8-1.9Z"/><path class="cls-1" d="M139,14.38c-1.55-1.09-3.29-1.33-4.85,1.51l-1.51,10.88h-7.24l3.75-18.86,6.29,0-.67,2.68c2.08-3.92,7.12-2.49,8-1.9Z"/><path class="cls-1" d="M240,14.38c-1.55-1.09-3.29-1.33-4.84,1.51l-1.51,10.88h-7.24l3.74-18.86,6.3,0-.67,2.68c2.08-3.92,7.12-2.49,8-1.9Z"/><path class="cls-1" d="M81.67,31.63a6.69,6.69,0,0,1,1.59,3.93,19.91,19.91,0,0,1,.09,2.2c0,.62,0,1.34,0,2.15q-.25,8.67-.68,11.57c-.46,3.24-1.25,4.85-2.36,4.85-.59,0-1.27-.45-2-1.37a18.6,18.6,0,0,1-2.76-5,51.78,51.78,0,0,0-2.31-5.2h0c0,.45-.29,3.12-.86,8a9,9,0,0,1-.83,3.39,1,1,0,0,1-.79.47,1.67,1.67,0,0,1-1-.47,4.08,4.08,0,0,1-1.26-1.74c-1-3.08-1.76-5.47-2.15-7.19a24.48,24.48,0,0,1-.66-5.32,13.89,13.89,0,0,1,.15-2.09,4.38,4.38,0,0,1,.47-1.52,1.32,1.32,0,0,1,1.15-.87h0c.62,0,1,.21,1.16.56a3.47,3.47,0,0,1,.1,1.09v.29c0,.38,0,.76,0,1.12a24.33,24.33,0,0,0,.82,7.5A12.59,12.59,0,0,0,70,45.5c.21-1.57.32-2.43.34-2.56.28-1.49.46-2.37.53-2.65a3.46,3.46,0,0,1,1.41-2.19,1.23,1.23,0,0,1,.58-.17q1.53,0,2.78,4.49A45.41,45.41,0,0,0,79.44,52a31.31,31.31,0,0,0,1.07-9.38c0-1,0-2.1-.06-3.25-.07-1.84-.22-3.58-.44-5.22a5.35,5.35,0,0,1-.06-.74,1.27,1.27,0,0,1,.25-.92,2.6,2.6,0,0,1,.57-.38C81.15,32,81.45,31.77,81.67,31.63Z"/><path class="cls-1" d="M95.11,50.27a2.31,2.31,0,0,1,1.15-.57c.26,0,.39.2.39.59a7.4,7.4,0,0,1-2,3.72,8.56,8.56,0,0,1-3.43,2.49,5.91,5.91,0,0,1-1.25.14q-3.06,0-5.66-3.48a5.38,5.38,0,0,1-.88-3.25A13.52,13.52,0,0,1,83.61,48c.19-1.24,1.18-2.06,3-2.46a2.94,2.94,0,0,1,.72-.08,3,3,0,0,1,1.82.63,5.45,5.45,0,0,1,1.65,2.12,4.48,4.48,0,0,1,.18,1.2,3.07,3.07,0,0,1-1.54,2.65,2.81,2.81,0,0,1-.67.31l-.57.21a.34.34,0,0,0-.22.3v0a1.23,1.23,0,0,0,.37.59,2.21,2.21,0,0,0,1.68.8,2.83,2.83,0,0,0,.57-.06A4.74,4.74,0,0,0,93,52.51,20.7,20.7,0,0,1,95.11,50.27Zm-8.34.87a1.45,1.45,0,0,0,1.1-.47,1.83,1.83,0,0,0,.46-1.07c0-.07,0-.14,0-.21a1.69,1.69,0,0,0-.25-.9,1.34,1.34,0,0,0-1-.6h-.16a.74.74,0,0,0-.65.34,1.77,1.77,0,0,0-.24,1A2.25,2.25,0,0,0,86.77,51.14Z"/><path class="cls-2" d="M108.62,53.4l.4,0a12.89,12.89,0,0,0,3.07-1.08A15.9,15.9,0,0,1,115,51.18a2,2,0,0,1,.4,0c.6,0,.92.32,1,1-.22,1.33-2,2.63-5.3,3.9a8.37,8.37,0,0,1-2.93.63A3.61,3.61,0,0,1,105,55.11a4.77,4.77,0,0,1-.82-2.75v-.25a7.91,7.91,0,0,1,.54-2.85,6.6,6.6,0,0,1,1.66-2.53,3.54,3.54,0,0,1,2.4-1h.07a1.49,1.49,0,0,1,1.56,1,1.56,1.56,0,0,1,.09.5,1.37,1.37,0,0,1-.82,1.18,13.52,13.52,0,0,0-2.09,1.42,2.17,2.17,0,0,0-.66,1.56,3,3,0,0,0,.17.92A1.48,1.48,0,0,0,108.62,53.4Z"/><path class="cls-2" d="M119.52,45.48a3.23,3.23,0,0,1,2.66,1.25,5.3,5.3,0,0,1,1,3.37,7.77,7.77,0,0,1-1.27,4.4,4.32,4.32,0,0,1-3.69,2.14,3.94,3.94,0,0,1-.9-.1,3.43,3.43,0,0,1-2.57-2.23,7.49,7.49,0,0,1-.53-2.94c0-.28,0-.57,0-.86a5.47,5.47,0,0,1,1.56-3.66,4.82,4.82,0,0,1,3.53-1.37Zm-2,4.22a3.2,3.2,0,0,0-.35,1.51v.15a3.13,3.13,0,0,0,.42,1.61,1,1,0,0,0,.88.62,1.77,1.77,0,0,0,1.23-.78,3.5,3.5,0,0,0,.75-2c0-.11,0-.22,0-.33a3.35,3.35,0,0,0-.48-1.81.86.86,0,0,0-.74-.44,1.68,1.68,0,0,0-1.12.53A1.62,1.62,0,0,0,117.52,49.7Z"/><path class="cls-2" d="M133.7,45.32q2,.33,3.37,4.33.33,1,.93,3.3a24.51,24.51,0,0,0,.81,2.71c0,.6-.25.9-.76.9a1.84,1.84,0,0,1-.53-.08,2.88,2.88,0,0,1-1.66-1,8,8,0,0,1-1-2.53,10.34,10.34,0,0,0-.94-2.57s-.15.54-.45,1.59a19.37,19.37,0,0,1-.68,2.07c-.67,1.71-1.41,2.58-2.23,2.62h0c-.65,0-1.16-1.11-1.52-3.31-.25-1.52-.38-2.29-.38-2.31-.14-.7-.3-1.06-.49-1.06q0,.09-1.57,4.45a4.06,4.06,0,0,1-1.1,1.86,1.16,1.16,0,0,1-.69.24,1.91,1.91,0,0,1-1.13-.46h0a4,4,0,0,0,0-1c0-.92,0-2.49-.11-4.7v0a2,2,0,0,1,.25-.92,1.94,1.94,0,0,0,.28-1c0-.37.25-.58.75-.61l.94-.07a7.61,7.61,0,0,0,.75-.85,8.4,8.4,0,0,1,.7-.78,1.41,1.41,0,0,1,1-.4,1.83,1.83,0,0,1,.92.28,4.36,4.36,0,0,1,1.21,2.51c.46,1.75.7,2.67.75,2.76.09-.19.43-1.31,1-3.38C132.56,46.47,133.08,45.61,133.7,45.32Z"/><path class="cls-2" d="M149.55,48.79a2.82,2.82,0,0,1,.23,1.1,4.85,4.85,0,0,1-1.64,3.21,6.69,6.69,0,0,1-3.49,2,1.69,1.69,0,0,0-.86.32.88.88,0,0,0-.07.41c0,.11,0,.25,0,.4a9.94,9.94,0,0,1,0,1l0,.37a52.84,52.84,0,0,0,.28,5.66,2.09,2.09,0,0,1,0,.24,1,1,0,0,1-.22.68.85.85,0,0,1-.69.28,2.46,2.46,0,0,1-2.42-2.61,19.36,19.36,0,0,1-.13-2.64V58.18q-.13-4.36-.14-7a29.47,29.47,0,0,1,.15-3.73,3.52,3.52,0,0,1,.42-1.75.89.89,0,0,1,.75-.3h.31a11.48,11.48,0,0,1,4.24.84A5.24,5.24,0,0,1,149.55,48.79Zm-5.86,3.67v.14a3.1,3.1,0,0,0,1.95-.86,3.29,3.29,0,0,0,1-1.9,1.5,1.5,0,0,0,0-.2,1.12,1.12,0,0,0-.29-.75,2.4,2.4,0,0,0-1.4-.72,3.38,3.38,0,0,0-.73-.08,1.51,1.51,0,0,0-.6.1,2.31,2.31,0,0,0-.16,1.11c0,.45,0,1,.1,1.74S143.69,52.16,143.69,52.46Z"/><path class="cls-2" d="M161.58,53.56a3.24,3.24,0,0,1,.75,1.73,1.47,1.47,0,0,1-.65.91,2,2,0,0,1-1.15.4,1.17,1.17,0,0,1-.84-.32,5.85,5.85,0,0,1-1.27-2.45,6.5,6.5,0,0,0-.86-2c-.06.1-.16.24-.28.44a19.94,19.94,0,0,1-1.86,2.59,5,5,0,0,1-2.61,1.65,3.42,3.42,0,0,1-.76.09,2.32,2.32,0,0,1-1.73-.68,2.76,2.76,0,0,1-.73-1.86q0-2.37,3-5.81,3.87-3.13,5.83-3.14h.11c.53,0,.94.51,1.24,1.51a16.41,16.41,0,0,1,.49,2.68c.05.43.09.69.11.79s.06.26.12.55a9.92,9.92,0,0,0,.56,2.06A5.41,5.41,0,0,0,161.58,53.56Zm-5.22-5a.26.26,0,0,0-.15,0c-.23,0-.55.22-1,.66a11.48,11.48,0,0,0-1.55,2.29,7.38,7.38,0,0,0-.83,2,4.66,4.66,0,0,0,2.26-2A5.87,5.87,0,0,0,156.36,48.57Z"/><path class="cls-2" d="M171.65,45.59a1.14,1.14,0,0,1,.55.87,1,1,0,0,1,0,.24,10.44,10.44,0,0,0-3.61,3,12.32,12.32,0,0,0-2.2,4.87c-.29,1.37-.72,2.05-1.27,2.05a1.2,1.2,0,0,1-.78-.39,7.09,7.09,0,0,1-1.66-3.72,20.14,20.14,0,0,1-.48-4.29,1.87,1.87,0,0,1,.64-1.16.78.78,0,0,1,.43-.14.9.9,0,0,1,.48.15c.77.48,1.21,1.58,1.32,3.32a8.51,8.51,0,0,1,2-3.3,4.88,4.88,0,0,1,3.43-2h0A2,2,0,0,1,171.65,45.59Z"/><path class="cls-2" d="M182.76,50.27a2.31,2.31,0,0,1,1.15-.57c.26,0,.39.2.39.59a7.4,7.4,0,0,1-2,3.72,8.56,8.56,0,0,1-3.43,2.49,5.91,5.91,0,0,1-1.25.14c-2,0-3.93-1.16-5.65-3.48a5.32,5.32,0,0,1-.88-3.25,13.42,13.42,0,0,1,.15-1.91c.19-1.24,1.18-2.06,3-2.46a2.94,2.94,0,0,1,.72-.08,3,3,0,0,1,1.82.63,5.45,5.45,0,0,1,1.65,2.12,4.48,4.48,0,0,1,.18,1.2,3.07,3.07,0,0,1-1.54,2.65,2.81,2.81,0,0,1-.67.31l-.57.21a.36.36,0,0,0-.22.3v0a1.31,1.31,0,0,0,.37.59,2.21,2.21,0,0,0,1.69.8,2.74,2.74,0,0,0,.56-.06,4.7,4.7,0,0,0,2.45-1.72A20.7,20.7,0,0,1,182.76,50.27Zm-8.34.87a1.45,1.45,0,0,0,1.1-.47A1.83,1.83,0,0,0,176,49.6a1.48,1.48,0,0,0,0-.21,1.69,1.69,0,0,0-.25-.9,1.34,1.34,0,0,0-1-.6h-.16a.72.72,0,0,0-.64.34,1.69,1.69,0,0,0-.25,1A2.25,2.25,0,0,0,174.42,51.14Z"/><path class="cls-1" d="M194.89,53.4l.39,0a12.74,12.74,0,0,0,3.07-1.08,15.89,15.89,0,0,1,2.88-1.11,1.84,1.84,0,0,1,.39,0c.6,0,.92.32,1,1q-.33,2-5.31,3.9a8.37,8.37,0,0,1-2.93.63,3.6,3.6,0,0,1-3.1-1.53,4.77,4.77,0,0,1-.83-2.75v-.25a7.72,7.72,0,0,1,.55-2.85,6.48,6.48,0,0,1,1.65-2.53,3.54,3.54,0,0,1,2.4-1h.07a1.51,1.51,0,0,1,1.57,1,1.56,1.56,0,0,1,.09.5,1.38,1.38,0,0,1-.83,1.18,13.23,13.23,0,0,0-2.08,1.42,2.17,2.17,0,0,0-.66,1.56,2.92,2.92,0,0,0,.16.92A1.5,1.5,0,0,0,194.89,53.4Z"/><path class="cls-1" d="M212.18,53.56a3.2,3.2,0,0,1,.76,1.73,1.47,1.47,0,0,1-.65.91,2,2,0,0,1-1.15.4,1.17,1.17,0,0,1-.84-.32A5.85,5.85,0,0,1,209,53.83a6.5,6.5,0,0,0-.86-2l-.28.44A19.94,19.94,0,0,1,206,54.9a5,5,0,0,1-2.6,1.65,3.51,3.51,0,0,1-.77.09,2.32,2.32,0,0,1-1.73-.68,2.76,2.76,0,0,1-.73-1.86q0-2.37,3-5.81,3.85-3.13,5.82-3.14h.11c.53,0,.94.51,1.24,1.51a17.32,17.32,0,0,1,.5,2.68c0,.43.08.69.1.79s.06.26.12.55a9.92,9.92,0,0,0,.56,2.06A7.24,7.24,0,0,0,212.18,53.56Zm-5.21-5a.26.26,0,0,0-.15,0c-.23,0-.55.22-.95.66a11.48,11.48,0,0,0-1.55,2.29,7.38,7.38,0,0,0-.83,2,4.66,4.66,0,0,0,2.26-2A5.87,5.87,0,0,0,207,48.57Z"/><path class="cls-1" d="M222.26,45.59a1.14,1.14,0,0,1,.55.87,1,1,0,0,1,0,.24,10.53,10.53,0,0,0-3.61,3,12.32,12.32,0,0,0-2.2,4.87c-.29,1.37-.71,2.05-1.27,2.05a1.22,1.22,0,0,1-.78-.39,7.09,7.09,0,0,1-1.66-3.72,20.14,20.14,0,0,1-.48-4.29,1.92,1.92,0,0,1,.64-1.16.78.78,0,0,1,.43-.14.9.9,0,0,1,.48.15c.77.48,1.21,1.58,1.32,3.32a8.51,8.51,0,0,1,2-3.3,4.9,4.9,0,0,1,3.43-2h0A2,2,0,0,1,222.26,45.59Z"/><path class="cls-1" d="M240.9,45.59a1.16,1.16,0,0,1,.55.87.69.69,0,0,1,0,.24,10.41,10.41,0,0,0-3.6,3,12.18,12.18,0,0,0-2.2,4.87c-.29,1.37-.72,2.05-1.27,2.05a1.24,1.24,0,0,1-.79-.39,7.17,7.17,0,0,1-1.65-3.72,20.14,20.14,0,0,1-.48-4.29,1.87,1.87,0,0,1,.64-1.16.78.78,0,0,1,.43-.14.9.9,0,0,1,.48.15c.77.48,1.21,1.58,1.32,3.32a8.39,8.39,0,0,1,2-3.3,4.88,4.88,0,0,1,3.42-2h0A2,2,0,0,1,240.9,45.59Z"/><path class="cls-1" d="M252,50.27a2.31,2.31,0,0,1,1.15-.57c.26,0,.39.2.39.59a7.4,7.4,0,0,1-2,3.72,8.56,8.56,0,0,1-3.43,2.49,5.91,5.91,0,0,1-1.25.14q-3.06,0-5.66-3.48a5.38,5.38,0,0,1-.88-3.25,13.52,13.52,0,0,1,.16-1.91c.19-1.24,1.18-2.06,3-2.46a2.94,2.94,0,0,1,.72-.08,3,3,0,0,1,1.82.63,5.54,5.54,0,0,1,1.65,2.12,4.48,4.48,0,0,1,.18,1.2,3.07,3.07,0,0,1-1.54,2.65,2.81,2.81,0,0,1-.67.31l-.57.21a.34.34,0,0,0-.22.3v0a1.23,1.23,0,0,0,.37.59,2.21,2.21,0,0,0,1.68.8,2.83,2.83,0,0,0,.57-.06,4.74,4.74,0,0,0,2.45-1.72A20.7,20.7,0,0,1,252,50.27Zm-8.35.87a1.42,1.42,0,0,0,1.1-.47,1.84,1.84,0,0,0,.47-1.07c0-.07,0-.14,0-.21a1.61,1.61,0,0,0-.26-.9,1.3,1.3,0,0,0-1-.6h-.16a.74.74,0,0,0-.65.34,1.77,1.77,0,0,0-.24,1A2.28,2.28,0,0,0,243.66,51.14Z"/><path class="cls-1" d="M263.37,53.73a7.17,7.17,0,0,1,.29,1.73,1.3,1.3,0,0,1-.19.79,1.16,1.16,0,0,1-1,.39,2.55,2.55,0,0,1-.59-.07c-.6-.1-1.07-.82-1.42-2.14a36.17,36.17,0,0,1-.69-4.06,23.66,23.66,0,0,0-.41-2.51,6.62,6.62,0,0,0-2.21,2.57,7.37,7.37,0,0,0-.54,2.93,3.64,3.64,0,0,1-.58,1.72c-.43.74-.9,1.11-1.39,1.11s-.81-.3-1.15-.89a4,4,0,0,1-.3-1.81,20.22,20.22,0,0,1,.25-2.87,17.13,17.13,0,0,0,.23-2.06,2.14,2.14,0,0,1,.58-1.62,1.42,1.42,0,0,1,1-.37,2.52,2.52,0,0,1,.52.06c.45.1.7.26.73.47a9,9,0,0,0,.9-1.22,14,14,0,0,1,.83-1.17,3.53,3.53,0,0,1,.78-.6,2.5,2.5,0,0,1,1.28-.45,1,1,0,0,1,1,.64,26.39,26.39,0,0,1,1.49,6.27c.15,1,.27,1.78.36,2.28C263.18,53,263.26,53.32,263.37,53.73Z"/><path class="cls-1" d="M275.2,45.91a1.32,1.32,0,0,1,.18.64,1,1,0,0,1-.1.45c-.28.57-1,1-2.15,1.17-.71.13-1.8.24-3.26.36l-.42,0a4.14,4.14,0,0,0,0,.42c-.05.58-.07,1-.07,1.37,0,.14,0,.26,0,.35.07.76.12,1.72.14,2.87V54c0,1.6-.13,2.44-.41,2.53,0,0-.19.07-.54.07a4,4,0,0,1-1.37-.11c-.59-.57-.88-1.83-.88-3.78,0-.59,0-1.25.08-2,0-.13,0-.26,0-.39a1.34,1.34,0,0,0-1.69-1.62h-.5a3.3,3.3,0,0,1-1.07-.13,1.72,1.72,0,0,1-1-1v-.07a.88.88,0,0,1,.27-.65,3,3,0,0,1,2.18-.61,4.87,4.87,0,0,1,.6,0l.37,0a2,2,0,0,0,.77-.15c-.09-.92-.13-1.83-.13-2.72,0-.7,0-1.38.07-2,.16-2,.55-3.4,1.17-4.07a1.37,1.37,0,0,1,1.07-.51h.1a.6.6,0,0,1,.44.2,4.19,4.19,0,0,1,.42,2.41q0,1.15-.15,2.82c-.06.73-.1,1.2-.1,1.43s0,.58,0,1v1.25c0,.11.21.17.64.17h.3a18.71,18.71,0,0,0,2.42-.34l.33-.08a5.5,5.5,0,0,1,1.36-.23A1,1,0,0,1,275.2,45.91Z"/><path class="cls-1" d="M284.77,53.56a3.24,3.24,0,0,1,.75,1.73,1.47,1.47,0,0,1-.65.91,1.93,1.93,0,0,1-1.15.4,1.2,1.2,0,0,1-.84-.32,5.85,5.85,0,0,1-1.27-2.45,6.81,6.81,0,0,0-.85-2l-.29.44a20.08,20.08,0,0,1-1.85,2.59A5,5,0,0,1,276,56.55a3.51,3.51,0,0,1-.77.09,2.32,2.32,0,0,1-1.73-.68,2.8,2.8,0,0,1-.73-1.86q0-2.37,3-5.81,3.85-3.13,5.82-3.14h.11c.53,0,.95.51,1.25,1.51a19,19,0,0,1,.49,2.68c.05.43.08.69.1.79s.06.26.12.55a11.38,11.38,0,0,0,.56,2.06A6.37,6.37,0,0,0,284.77,53.56Zm-5.22-5a.24.24,0,0,0-.15,0c-.23,0-.54.22-.95.66a11.92,11.92,0,0,0-1.55,2.29,7.73,7.73,0,0,0-.83,2,4.62,4.62,0,0,0,2.26-2A5.87,5.87,0,0,0,279.55,48.57Z"/><path class="cls-1" d="M289.46,54.76A2.32,2.32,0,0,1,289,56.3a.88.88,0,0,1-.71.34,1.88,1.88,0,0,1-1-.36q-1.19-.75-1.46-5.92c0-.55-.05-.91-.07-1.09-.1-1.15-.14-2.33-.14-3.52v-.64a79,79,0,0,1,.39-7.92v-.08l.08,0a2.84,2.84,0,0,1,1.48-.46.91.91,0,0,1,.67.28c.41.47.62,1.61.62,3.45,0,1-.05,2.08-.16,3.4,0,.42-.06.69-.07.78,0,.53,0,1.07,0,1.61a41.78,41.78,0,0,0,.72,7.52A6,6,0,0,1,289.46,54.76Z"/></g></g></svg>